
<svg width="200" height="200" version="1.1" xmlns="http://www.w3.org/2000/svg" desc="Created with imagetracer.js version 1.2.6" ><path fill="rgb(0,0,0)" stroke="rgb(0,0,0)" stroke-width="1" opacity="0" d="M 0 0 L 200 0 L 200 200 L 0 200 L 0 0 Z M 94 7 L 77 12 L 69 16 L 54 27 L 42 41 L 35 56 L 32 73 L 32 116 L 31 117 L 31 123 L 27 133 L 21 140 L 21 144 L 26 157 L 38 176 L 50 186 L 57 190 L 67 193 L 73 193 L 74 192 L 67 181 L 63 165 L 64 143 L 70 121 L 68 118 L 55 112 L 48 105 L 46 99 L 47 88 L 51 81 L 56 81 L 67 84 L 81 93 L 88 103 L 88 152 L 99 162 L 101 162 L 111 152 L 111 103 L 115 97 L 122 90 L 130 85 L 139 82 L 149 81 L 152 89 L 152 101 L 148 109 L 142 114 L 132 118 L 129 121 L 136 148 L 136 167 L 135 172 L 133 179 L 127 190 L 125 192 L 127 193 L 133 193 L 143 190 L 155 182 L 167 168 L 178 144 L 178 140 L 170 130 L 167 118 L 167 73 L 164 56 L 157 41 L 149 31 L 140 22 L 123 12 L 106 7 L 94 7 Z " /><path fill="rgb(254,254,254)" stroke="rgb(254,254,254)" stroke-width="1" opacity="1" d="M 93.5 7 L 105.5 7 L 122.5 12 L 139.5 22 L 149 30.5 L 157 40.5 L 164 55.5 L 167 72.5 L 167 117.5 L 170 129.5 L 178 139.5 L 178 143.5 L 167 167.5 L 154.5 182 L 142.5 190 L 132.5 193 L 126.5 193 L 125 191.5 L 127 189.5 L 133 178.5 L 135 171.5 L 136 166.5 L 136 147.5 L 129 120.5 L 131.5 118 L 141.5 114 L 148 108.5 L 152 100.5 L 152 88.5 L 148.5 81 L 138.5 82 L 129.5 85 L 121.5 90 L 115 96.5 L 111 102.5 L 111 151.5 L 100.5 162 L 98.5 162 L 88 151.5 L 88 102.5 L 81 93 L 66.5 84 L 55.5 81 L 50.5 81 L 47 87.5 L 46 98.5 L 48 104.5 L 54.5 112 L 67.5 118 L 70 120.5 L 64 142.5 L 63 164.5 L 67 180.5 L 74 191.5 L 72.5 193 L 66.5 193 L 56.5 190 L 49.5 186 L 38 175.5 L 26 156.5 L 21 143.5 L 21 139.5 L 27 132.5 L 31 122.5 L 31 116.5 L 32 115.5 L 32 72.5 L 35 55.5 L 42 40.5 L 53.5 27 L 68.5 16 L 76.5 12 L 93.5 7 Z " /></svg>