
<svg width="72" height="72" version="1.1" xmlns="http://www.w3.org/2000/svg" desc="Created with imagetracer.js version 1.2.6" ><path fill="rgb(0,0,0)" stroke="rgb(0,0,0)" stroke-width="1" opacity="0" d="M 0 0 L 33 0.5 L 30 2.5 L 18 25.5 L 8 37.5 L 6 42.5 L 25.5 66 L 33 71.5 L 0 72 L 0 0 Z " /><path fill="rgb(0,0,0)" stroke="rgb(0,0,0)" stroke-width="1" opacity="0" d="M 40.5 0 L 72 0 L 72 72 L 40 71.5 L 52 61.5 L 66 44.5 L 67 40.5 L 55 25.5 L 41.5 1 L 40.5 0 Z " /><path fill="rgb(0,0,0)" stroke="rgb(0,0,0)" stroke-width="1" opacity="0" d="M 24.5 31 L 34.5 36 L 38.5 36 L 48.5 31 L 51 32 L 52 34.5 L 36.5 60 L 21 34.5 L 22 32 L 24.5 31 Z " /><path fill="rgb(254,254,254)" stroke="rgb(254,254,254)" stroke-width="1" opacity="1" d="M 33.5 0 L 39.5 0 L 43 2.5 L 55 25.5 L 67 40.5 L 67 42.5 L 47.5 66 L 39.5 72 L 33.5 72 L 20 60.5 L 10 48.5 L 6 40.5 L 18 25.5 L 31.5 1 L 33.5 0 Z M 25 31 L 22 32 L 21 35 L 37 60 L 52 35 L 51 32 L 49 31 L 39 36 L 35 36 L 25 31 Z " /></svg>